<?xml version="1.0" encoding="utf-8"?>
<svg viewBox="0 0 678.62 606.19" xmlns="http://www.w3.org/2000/svg">
  <path d="m435.76,606.19h-193.12c-28.09,0-50.94-22.85-50.94-50.94V50.94c0-28.09,22.85-50.94,50.94-50.94h193.12c28.09,0,50.94,22.85,50.94,50.94v504.31c0,28.09-22.85,50.94-50.94,50.94Z" fill="#d7d7d8" stroke-width="0"/>
  <path d="m435.9,592.4h-193.4c-20.79,0-37.71-16.92-37.71-37.71V50.51c0-20.79,16.92-37.71,37.71-37.71h193.4c20.79,0,37.71,16.92,37.71,37.71v504.18c0,20.79-16.92,37.71-37.71,37.71Z" fill="#fff" stroke-width="0"/>
  <path d="m366.55,46.36h-54.69c-7.22,0-13.09-5.87-13.09-13.09s5.87-13.09,13.09-13.09h54.69c7.22,0,13.09,5.87,13.09,13.09s-5.87,13.09-13.09,13.09Z" fill="#d7d7d8" stroke-width="0"/>
  <rect x="232.077" y="396.424" width="212.77" height="29.95" rx="14.98" ry="14.98" stroke-width="0" style="fill: rgb(104, 198, 161);"/>
  <rect x="235.011" y="241.53" width="65.71" height="5.22" rx="2.61" ry="2.61" stroke-width="0" style="fill: rgb(110, 231, 183);"/>
  <path d="m537.95,123.4s-20.62,2.33-21.95,34.25c-1.11,26.6-3.37,41.43,7.45,46.98,3.87,1.98,8.42,2.16,12.55.8l44.18-14.53s.67-47.89-14.63-59.52c-15.3-11.64-27.6-7.98-27.6-7.98Z" fill="#2f2e41" stroke-width="0"/>
  <polygon points="562.31 196.78 539.95 204.13 539.95 171.95 560.23 171.95 562.31 196.78" fill="#ffb6b6" stroke-width="0"/>
  <path id="uuid-e639489a-d12b-4c23-97cb-2af79ea40b7d-675" d="M 520.703 392.119 C 519.493 399.489 514.573 404.779 509.723 403.929 C 504.873 403.079 501.913 396.409 503.133 389.029 C 503.573 386.079 504.743 383.279 506.543 380.889 L 512.083 349.719 L 527.163 352.879 L 520.093 383.269 C 521.023 386.149 521.233 389.179 520.703 392.119 C 520.703 392.119 520.703 392.119 520.703 392.119 Z" fill="#ffb6b6" stroke-width="0" style="transform-origin: 547.29px 223.136px;" transform="matrix(-0.455254018307, 0.890362024307, -0.890362024307, -0.455254018307, 0.000033696448, -0.000082838391)"/>
  <path id="uuid-56df27a3-bbb6-4bd2-b7f5-888148e3fe66-676" d="m615.85,375.91c1.49,7.32-1.24,14.01-6.08,14.94-4.84.93-9.97-4.26-11.45-11.58-.63-2.92-.53-5.94.29-8.82l-5.89-31.11,15.22-2.41,4.19,30.92c1.89,2.36,3.16,5.12,3.72,8.06,0,0,0,0,0,0Z" fill="#ffb6b6" stroke-width="0"/>
  <rect x="532.96" y="557.07" width="20.94" height="29.71" fill="#ffb6b6" stroke-width="0"/>
  <path d="m512.57,604.77c-2.2,0-4.16-.05-5.64-.19-5.56-.51-10.87-4.62-13.54-7.02-1.2-1.08-1.58-2.8-.96-4.28h0c.45-1.06,1.34-1.86,2.45-2.17l14.7-4.2,23.8-16.06.27.48c.1.18,2.44,4.39,3.22,7.23.3,1.08.22,1.98-.23,2.68-.31.48-.75.76-1.1.92.43.45,1.78,1.37,5.94,2.03,6.07.96,7.35-5.33,7.4-5.59l.04-.21.18-.12c2.89-1.86,4.67-2.71,5.28-2.53.38.11,1.02.31,2.75,17.44.17.54,1.38,4.48.56,8.25-.89,4.1-18.81,2.69-22.4,2.37-.1.01-13.52.97-22.71.97Z" fill="#2f2e41" stroke-width="0"/>
  <rect x="602.03" y="537.03" width="20.94" height="29.71" transform="matrix(0.848510207935059, -0.5291790122727874, 0.5291790122727874, 0.848510207935059, -199.2600005277991, 407.72000119268887)" fill="#ffb6b6" stroke-width="0"/>
  <path d="m589.93,600.7c-2.46,0-4.72-.3-6.33-.58-1.58-.28-2.82-1.54-3.08-3.12h0c-.18-1.14.15-2.29.93-3.14l10.25-11.34,11.7-26.22.48.26c.18.1,4.39,2.43,6.56,4.43.83.76,1.24,1.57,1.22,2.4-.01.58-.23,1.04-.45,1.37.6.16,2.23.22,6.11-1.42,5.66-2.39,3.42-8.41,3.32-8.66l-.08-.2.09-.19c1.47-3.11,2.52-4.77,3.14-4.94.39-.11,1.03-.28,11.56,13.35.43.36,3.54,3.07,4.84,6.7,1.41,3.95-14.54,12.24-17.75,13.86-.1.08-16.79,12.21-23.65,15.66-2.72,1.37-5.94,1.79-8.87,1.79Z" fill="#2f2e41" stroke-width="0"/>
  <path d="m569.32,308.62h-58.63l-5.32,54.54,23.28,201.52h29.93l-11.97-116.39,48.55,105.08,26.6-18.62-37.91-98.1s13.54-85.46,2.9-106.75c-10.64-21.28-17.43-21.28-17.43-21.28Z" fill="#2f2e41" stroke-width="0"/>
  <polygon points="598.48 311.95 496.73 311.95 533.31 191.57 573.88 191.57 598.48 311.95" stroke-width="0" style="fill: rgb(110, 231, 183);"/>
  <path d="M 566.453 204.219 C 566.453 204.219 541.183 203.549 538.523 210.209 C 535.863 216.859 504.603 375.149 504.603 375.149 L 525.223 375.149 L 566.463 204.219 L 566.453 204.219 Z" stroke-width="0" style="fill: rgb(110, 231, 183); transform-origin: 547.29px 223.136px;" transform="matrix(-0.455254018307, 0.890362024307, -0.890362024307, -0.455254018307, 0.00001485074, -0.000059658224)"/>
  <path d="m556.15,191.73s22.26-2.82,24.92,3.83c2.66,6.65,33.92,164.94,33.92,164.94h-20.62s-38.22-168.77-38.22-168.77Z" stroke-width="0" style="fill: rgb(110, 231, 183);"/>
  <circle cx="542.72" cy="158.58" r="22.28" fill="#ffb6b6" stroke-width="0"/>
  <path d="m536.62,131.71s-12.26,49.79,1.37,73.06l-19.2-4.08s-7.44-54.49,7.52-64.4l10.31-4.59Z" fill="#2f2e41" stroke-width="0"/>
  <path d="m678.62,603.58c0,.83-.67,1.5-1.5,1.5H1.5c-.83,0-1.5-.67-1.5-1.5s.67-1.5,1.5-1.5h675.62c.83,0,1.5.67,1.5,1.5Z" fill="#2e2e41" stroke-width="0"/>
  <g transform="matrix(0.020123999565839767, 0, 0, -0.01981000229716301, 286.8945050074831, 203.73544615112903)" fill="#000000" stroke="none" style="">
    <path d="M523 4945 c-175 -48 -317 -195 -353 -368 -7 -35 -10 -226 -8 -584 3 -519 3 -532 24 -559 39 -53 71 -69 134 -69 63 0 95 16 134 69 20 27 21 42 26 566 5 524 6 539 26 566 11 15 33 37 48 48 27 20 42 21 566 26 524 5 539 6 566 26 53 39 69 71 69 134 0 63 -16 95 -69 134 -27 21 -39 21 -569 23 -442 2 -552 -1 -594 -12z" style="fill: rgb(141, 236, 198);"/>
    <path d="M3455 4946 c-118 -51 -124 -224 -11 -289 15 -9 160 -13 558 -17 522 -5 537 -6 564 -26 15 -11 37 -33 48 -48 20 -27 21 -42 26 -566 5 -524 6 -539 26 -566 39 -53 71 -69 134 -69 63 0 95 16 134 69 21 27 21 40 24 559 2 358 -1 549 -8 584 -37 175 -179 322 -357 368 -80 21 -1091 22 -1138 1z" style="fill: rgb(141, 236, 198);"/>
    <path d="M895 4306 c-41 -18 -83 -69 -90 -109 -3 -18 -5 -262 -3 -544 3 -499 4 -512 24 -539 11 -15 33 -37 48 -48 27 -21 38 -21 566 -21 528 0 539 0 566 21 15 11 37 33 48 48 21 27 21 38 21 566 0 528 0 539 -21 566 -11 15 -33 37 -48 48 -27 21 -40 21 -554 23 -423 2 -533 0 -557 -11z m865 -626 l0 -320 -320 0 -320 0 0 320 0 320 320 0 320 0 0 -320z" style="fill: rgb(141, 236, 198);"/>
    <path d="M2495 4306 c-94 -41 -124 -168 -58 -247 52 -61 24 -59 827 -59 l735 0 3 -269 c3 -254 4 -271 24 -297 39 -53 71 -69 134 -69 63 0 95 16 134 69 20 27 21 39 21 406 0 367 -1 379 -21 406 -11 15 -33 37 -48 48 -27 21 -36 21 -874 23 -689 2 -853 0 -877 -11z" style="fill: rgb(141, 236, 198);"/>
    <path d="M2495 3666 c-41 -18 -83 -69 -90 -109 -4 -18 -5 -118 -3 -224 3 -210 5 -218 72 -267 39 -29 133 -29 172 0 68 51 69 53 69 294 0 205 -1 220 -21 246 -11 15 -32 37 -46 47 -33 25 -113 32 -153 13z" style="fill: rgb(141, 236, 198);"/>
    <path d="M3135 3666 c-41 -18 -83 -69 -90 -109 -3 -18 -5 -262 -3 -544 3 -499 4 -512 24 -539 39 -53 71 -69 134 -69 63 0 95 16 134 69 20 27 21 41 24 456 l3 428 109 4 c117 3 140 12 184 72 29 39 29 133 0 172 -50 67 -55 69 -282 71 -157 2 -214 0 -237 -11z" style="fill: rgb(141, 236, 198);"/>
    <path d="M3775 3026 c-94 -42 -124 -169 -58 -247 40 -47 79 -59 187 -59 l94 0 4 -109 c3 -118 12 -141 72 -185 39 -29 133 -29 172 0 68 51 69 53 69 294 0 205 -1 220 -21 246 -50 67 -55 69 -282 71 -157 2 -214 0 -237 -11z" style="fill: rgb(141, 236, 198);"/>
    <path d="M895 2706 c-67 -29 -105 -106 -91 -181 9 -47 59 -102 104 -115 25 -8 184 -10 474 -8 423 3 437 4 464 24 53 39 69 71 69 134 0 63 -16 95 -69 134 -27 20 -40 21 -474 23 -356 2 -453 0 -477 -11z" style="fill: rgb(141, 236, 198);"/>
    <path d="M2335 2706 c-97 -43 -124 -171 -54 -251 42 -47 84 -57 221 -53 99 2 121 6 144 24 53 39 69 71 69 134 0 63 -16 95 -69 134 -24 18 -44 21 -154 24 -91 1 -136 -2 -157 -12z" style="fill: rgb(141, 236, 198);"/>
    <path d="M895 2066 c-41 -18 -83 -69 -90 -109 -3 -18 -5 -262 -3 -544 3 -499 4 -512 24 -539 11 -15 33 -37 48 -48 27 -21 38 -21 566 -21 528 0 539 0 566 21 15 11 37 33 48 48 21 27 21 38 21 566 0 528 0 539 -21 566 -11 15 -33 37 -48 48 -27 21 -40 21 -554 23 -423 2 -533 0 -557 -11z m865 -626 l0 -320 -320 0 -320 0 0 320 0 320 320 0 320 0 0 -320z" style="fill: rgb(141, 236, 198);"/>
    <path d="M2495 2066 c-41 -18 -83 -69 -90 -109 -3 -18 -5 -262 -3 -544 3 -499 4 -512 24 -539 39 -53 71 -69 134 -69 63 0 95 16 134 69 21 27 21 38 21 566 0 528 0 539 -21 566 -11 15 -32 37 -46 47 -33 25 -113 32 -153 13z" style="fill: rgb(141, 236, 198);"/>
    <path d="M3135 2066 c-41 -18 -83 -69 -90 -109 -3 -18 -5 -262 -3 -544 3 -499 4 -512 24 -539 11 -15 33 -37 48 -48 27 -21 38 -21 566 -21 528 0 539 0 566 21 15 11 37 33 48 48 21 27 21 38 21 566 0 528 0 539 -21 566 -11 15 -33 37 -48 48 -27 21 -40 21 -554 23 -423 2 -533 0 -557 -11z m865 -626 l0 -320 -320 0 -320 0 0 320 0 320 320 0 320 0 0 -320z" style="fill: rgb(141, 236, 198);"/>
    <path d="M255 1746 c-37 -17 -70 -52 -84 -89 -7 -19 -11 -205 -11 -551 0 -566 1 -580 56 -688 59 -116 196 -220 327 -248 35 -7 226 -10 584 -8 519 3 532 3 559 24 53 39 69 71 69 134 0 63 -16 95 -69 134 -27 20 -42 21 -566 26 -524 5 -539 6 -566 26 -15 11 -37 33 -48 48 -20 27 -21 42 -26 566 -5 524 -6 539 -26 566 -11 15 -32 37 -46 47 -34 25 -113 32 -153 13z" style="fill: rgb(141, 236, 198);"/>
    <path d="M4740 1749 c-29 -12 -67 -46 -83 -74 -9 -14 -13 -177 -17 -557 -5 -522 -6 -537 -26 -564 -11 -15 -33 -37 -48 -48 -27 -20 -42 -21 -566 -26 -524 -5 -539 -6 -566 -26 -53 -39 -69 -71 -69 -134 0 -63 16 -95 69 -134 27 -21 40 -21 559 -24 358 -2 549 1 584 8 179 38 336 195 373 375 7 33 10 236 8 582 -3 519 -3 532 -24 559 -11 15 -32 37 -46 47 -31 23 -111 32 -148 16z" style="fill: rgb(141, 236, 198);"/>
  </g>
  <rect x="234.211" y="261.855" width="100" height="5.2" rx="2.61" ry="2.61" stroke-width="0" style="fill: rgb(110, 231, 183);"/>
  <rect x="234.151" y="276.166" width="100" height="5.2" rx="2.61" ry="2.61" stroke-width="0" style="fill: rgb(110, 231, 183);"/>
  <rect x="234.181" y="292.04" width="100" height="5.2" rx="2.61" ry="2.61" stroke-width="0" style="fill: rgb(110, 231, 183);"/>
  <rect x="234.121" y="306.351" width="100" height="5.2" rx="2.61" ry="2.61" stroke-width="0" style="fill: rgb(110, 231, 183); paint-order: fill;"/>
  <rect style="fill: rgb(110, 231, 183); paint-order: stroke; stroke: rgb(110, 231, 183); stroke-width: 4px; fill-opacity: 0.2;" x="231.254" y="327.678" width="212.77" height="46.293" rx="5" ry="5"/>
</svg>